<?xml version="1.0" encoding="utf-8"?>
<!-- Generator: Adobe Illustrator 13.0.0, SVG Export Plug-In . SVG Version: 6.00 Build 14948)  -->
<!DOCTYPE svg PUBLIC "-//W3C//DTD SVG 1.1 Basic//EN" "http://www.w3.org/Graphics/SVG/1.1/DTD/svg11-basic.dtd">
<svg version="1.1" baseProfile="basic" id="Layer_1"
	 xmlns="http://www.w3.org/2000/svg" xmlns:xlink="http://www.w3.org/1999/xlink" x="0px" y="0px" width="840.034px"
	 height="355.662px" viewBox="0 0 840.034 355.662" xml:space="preserve">
<g>
	<path d="M821.839,200.871c1.116,0,2.266,0.125,3.453,0.402c5.775,1.347,10.609,5.919,12.006,11.71
		c2.197,9.1-3.681,19.813-13.6,19.813c-0.273,0-0.553-0.008-0.835-0.025c-6.784-0.403-12.566-4.33-18.312-7.558
		c-5.877-3.298-18.559-7.267-29.61-7.267c-8.385,0-15.83,2.288-18.637,8.891c-3.636,8.554,3.716,17.92,10.441,22.539
		c7.534,5.179,17.498,4.933,24.805,10.527c4.877,3.733,7.006,10.631,5.406,16.501c-2.184,8.016-8.852,10.027-15.85,12.523
		c-7.498,2.676-14.502,6.675-19.264,13.219c-11.557,15.884-4.771,37.91,14.162,37.91c1.974,0,4.082-0.24,6.315-0.751
		c12.972-2.97,22.047-16.013,35.379-17.558c0.779-0.091,1.565-0.134,2.356-0.134c1.511,0,3.028,0.164,4.5,0.485
		c7.074,1.547,13.164,6.71,13.134,14.672c-0.04,10.506-8.949,15.146-17.964,15.146c-2.088,0-4.186-0.252-6.176-0.732
		c-12.871-3.126-24.674-7.027-37.025-7.027c-5.381,0-10.864,0.74-16.583,2.607c-6.895,2.252-14.119,5.007-21.476,5.007
		c-1.186,0-2.376-0.071-3.566-0.229c-7.825-1.03-15.14-4.726-22.923-6.063c-3.89-0.672-7.838-1.016-11.781-1.016
		c-7.401,0-14.794,1.213-21.775,3.754c-5.412,1.97-11.547,5.161-17.506,5.161c-2.011,0-4.004-0.362-5.942-1.262
		c-25.237-11.714,20.267-42.661,26.316-54.36c9.927-19.246,6.589-50.35-14.572-61.267c-8.986-4.635-20.216-7.094-19.222-19.653
		c0.808-10.229,9.345-15.329,17.61-15.329c8.759,0.002,17.209,5.724,15.844,17.135c-1.516,12.664-1.474,25.124,10.439,32.793
		c6.952,4.475,16.063,3.92,22.563,8.896c4.876,3.734,7.003,10.632,5.403,16.501c-2.182,8.015-8.85,10.029-15.848,12.526
		c-7.496,2.674-14.5,6.671-19.261,13.218c-5.918,8.132-8.7,21.346-2.85,30.267c3.648,5.563,9.729,7.512,16.123,7.512
		c5.816,0,11.891-1.611,16.633-3.583c10.735-4.46,20.231-12.127,28.697-19.657c9.938-8.839,17.236-20.673,20.447-33.59
		c4.236-17.025-2.817-39.124-18.985-47.462c-8.982-4.635-20.21-7.095-19.218-19.655c0.714-9.034,7.528-15.241,16.007-15.241
		c0.954,0,1.931,0.078,2.922,0.241c9.17,1.499,16.729,8.228,25.092,11.352c4.847,1.811,9.929,2.831,14.972,2.831
		c5.647,0,11.249-1.279,16.412-4.169C807.332,207.603,813.687,200.871,821.839,200.871 M821.839,198.591L821.839,198.591
		c-6.512,0-11.735,3.637-16.786,7.152c-1.949,1.357-3.789,2.64-5.669,3.689c-4.603,2.573-9.747,3.88-15.297,3.88
		c-4.63,0-9.4-0.905-14.173-2.688c-3.159-1.182-6.202-2.905-9.428-4.731c-5-2.835-10.172-5.766-16.096-6.736
		c-1.099-0.179-2.203-0.27-3.289-0.27c-9.798,0-17.486,7.295-18.283,17.343c-0.946,12.023,7.981,16.092,15.861,19.681
		c1.529,0.697,3.116,1.421,4.589,2.18c15.866,8.184,21.604,29.669,17.816,44.886c-3.062,12.31-10.077,23.83-19.75,32.437
		c-7.926,7.05-17.454,14.85-28.055,19.255c-5.214,2.167-10.957,3.408-15.76,3.408c-6.612,0-11.397-2.181-14.215-6.485
		c-5.345-8.143-2.555-20.337,2.783-27.672c3.918-5.383,9.866-9.443,18.185-12.411l0.96-0.34c6.847-2.427,13.927-4.937,16.323-13.732
		c1.879-6.894-0.68-14.672-6.219-18.911c-3.785-2.897-8.236-4.066-12.546-5.196c-3.69-0.968-7.182-1.885-10.17-3.807
		c-10.103-6.508-11.091-16.535-9.41-30.607c0.654-5.438-0.676-10.196-3.837-13.759c-3.341-3.765-8.54-5.924-14.27-5.926
		c-8.909,0-18.937,5.454-19.884,17.431c-0.952,12.022,7.979,16.089,15.86,19.68c1.531,0.697,3.114,1.42,4.587,2.179
		c9.12,4.704,15.426,13.909,17.753,25.918c2.138,11.02,0.583,23.085-4.162,32.277c-1.537,2.977-6.43,7.86-11.61,13.029
		c-11.343,11.314-24.2,24.145-22.343,34.667c0.734,4.148,3.666,7.438,8.71,9.776c2.107,0.98,4.428,1.477,6.898,1.477
		c5.03,0,10.073-2.037,14.52-3.831c1.313-0.531,2.56-1.03,3.768-1.47c6.589-2.399,13.654-3.617,20.994-3.617
		c3.782,0,7.614,0.332,11.393,0.979c3.493,0.605,6.87,1.695,10.442,2.85c4.037,1.31,8.212,2.658,12.57,3.231
		c1.249,0.165,2.552,0.247,3.865,0.247c6.823,0,13.344-2.174,19.649-4.277c0.849-0.282,1.694-0.565,2.534-0.839
		c5.145-1.681,10.335-2.499,15.875-2.499c9.506,0,18.774,2.41,28.587,4.957c2.567,0.665,5.219,1.356,7.9,2.008
		c2.179,0.527,4.438,0.795,6.714,0.795c10.04,0,20.195-5.385,20.242-17.418c0.036-8.28-5.825-14.915-14.923-16.902
		c-1.641-0.361-3.319-0.543-4.989-0.543c-0.878,0-1.759,0.054-2.618,0.153c-7.639,0.884-13.862,5.181-19.882,9.34
		c-5.189,3.58-10.085,6.961-15.745,8.257c-2.011,0.461-3.961,0.694-5.806,0.694c-6.909,0-12.361-3.229-15.352-9.097
		c-3.823-7.514-2.633-17.4,3.036-25.191c3.916-5.383,9.864-9.443,18.183-12.41l0.958-0.339c6.849-2.43,13.929-4.937,16.327-13.736
		c1.874-6.893-0.682-14.667-6.221-18.911c-4.127-3.159-8.918-4.572-13.553-5.941c-4.127-1.216-8.021-2.367-11.349-4.655
		c-5.611-3.854-12.809-12.3-9.635-19.766c2.635-6.201,10.453-7.501,16.54-7.501c11.081,0,23.334,4.076,28.492,6.973
		c0.812,0.455,1.623,0.925,2.438,1.396c5.163,2.984,10.501,6.07,16.858,6.449c0.327,0.021,0.65,0.029,0.969,0.029
		c4.796,0,9.137-2.16,12.227-6.081c3.58-4.55,4.955-10.89,3.589-16.549c-1.585-6.566-6.963-11.824-13.702-13.396
		C824.494,198.746,823.158,198.591,821.839,198.591"/>
	<path d="M308.011,201.177c3.653,0,7.279,1.345,10.06,3.837c3.518,3.15,5.597,7.655,6.627,12.269
		c2.419,10.841,2.152,22.241,4.517,33.228c2.374,11.028,5.792,21.832,10.191,32.222c3.963,9.353,7.276,19.776,14.085,27.546
		c2.925,3.339,5.657,4.684,8.19,4.684c6.242,0,11.26-8.183,14.894-14.896c4.297-7.946,8.011-16.203,11.103-24.69
		c5.847-16.047,7.925-31.497,9.939-48.173c1.272-10.515,4.898-25.935,18.188-25.936c0.002,0,0,0,0,0
		c9.106,0,15.479,6.586,23.408,9.863c5.911,2.447,12.317,3.673,18.72,3.673c2.284,0,4.566-0.155,6.823-0.468
		c12.513-1.728,22.619-11.898,35.279-11.898c0.118,0,0.242,0.001,0.367,0.003c8.418,0.131,17.285,7.398,15.643,15.656
		c-1.578,7.935-11.108,11.386-19.193,11.578c-0.224,0.009-0.444,0.011-0.664,0.011c-14.01,0-25.967-10.533-39.87-10.533
		c-0.928,0-1.867,0.049-2.812,0.149c-11.821,1.251-24.124,15.549-14.763,26.497c6.342,7.422,17.899,8.059,25.84,12.755
		c13.497,7.979,12.169,24.938,15.87,38.186c3.612,12.938,15.176,18.886,24.616,27.141c8.972,7.85,16.309,19.175,2.609,26.635
		c-2.774,1.511-6.001,2.067-9.392,2.067c-6.847,0-14.352-2.272-20.077-3.562c-6.172-1.387-12.134-1.945-18.021-1.945
		c-10.819,0-21.376,1.887-32.419,3.99c-1.766,0.338-3.656,0.503-5.593,0.503c-13.039,0-28.029-7.626-19.79-22.704
		c6.142-11.244,19.627-16.031,27.645-25.392c9.782-11.429,12.342-26.741,8.826-40.952c-1.981-7.994-4.465-16.643-11.614-21.542
		c-2.497-1.712-4.613-2.557-6.646-2.557c-2.343,0-4.576,1.125-7.163,3.346c-7.589,6.521-11.764,16.548-16.386,25.18
		c-8.115,15.16-16.113,31.067-16.909,48.58c-0.292,6.396,1.329,13.071,0.06,19.385c-1.683,8.365-7.826,16.462-16.278,17.63
		c-0.862,0.121-1.686,0.176-2.475,0.176c-10.153,0-14.509-9.472-15.94-18.801c-1.392-9.068-0.946-17.818-2.812-26.859
		c-1.739-8.435-4.271-16.702-7.534-24.67c-6.637-16.2-16.311-31.171-28.512-43.733c-6.31-6.496-13.799-13.564-13.604-22.621
		c0.124-5.846,3.934-11.451,9.321-13.723C304.177,201.547,306.098,201.177,308.011,201.177 M457.519,343.681
		c5.725,0,11.457-2.671,15.953-9.071c8.239-11.721,11.289-28.36-1.731-37.453c-0.351-0.244-0.71-0.479-1.086-0.712
		c-4.048-2.526-8.665-3.775-13.239-3.775c-7.335,0-14.56,3.204-19.124,9.49C424.418,321.244,440.928,343.681,457.519,343.681
		 M308.011,198.896L308.011,198.896c-2.271,0-4.47,0.441-6.532,1.312c-6.264,2.639-10.569,8.979-10.716,15.774
		c-0.202,9.464,6.863,16.694,13.095,23.076l1.154,1.183c11.786,12.136,21.481,27.007,28.035,43.008
		c3.218,7.853,5.713,16.02,7.414,24.265c1.01,4.888,1.315,9.631,1.64,14.651c0.255,3.925,0.518,7.985,1.148,12.097
		c2.023,13.177,8.656,20.732,18.196,20.732c0.899,0,1.836-0.063,2.786-0.195c10.102-1.396,16.517-11.056,18.203-19.44
		c0.825-4.105,0.525-8.257,0.236-12.272c-0.188-2.595-0.366-5.045-0.255-7.454c0.759-16.67,8.307-32.032,16.645-47.61
		c0.85-1.589,1.699-3.253,2.521-4.859c3.673-7.189,7.473-14.625,13.339-19.667c2.251-1.932,4-2.794,5.677-2.794
		c1.505,0,3.207,0.684,5.355,2.157c6.325,4.334,8.667,12.032,10.69,20.209c3.561,14.378,0.518,28.563-8.348,38.92
		c-3.188,3.728-7.303,6.693-11.657,9.835c-6.118,4.413-12.447,8.978-16.253,15.946c-4.077,7.463-2.67,12.843-0.77,16.047
		c4.393,7.405,14.899,10.033,22.561,10.033c2.098,0,4.122-0.187,6.021-0.546c11.358-2.163,21.606-3.952,31.991-3.952
		c6.135,0,11.865,0.62,17.52,1.894c1.167,0.262,2.41,0.564,3.701,0.884c5.235,1.28,11.167,2.732,16.878,2.732
		c4.154,0,7.581-0.766,10.481-2.344c5.282-2.88,8.215-6.585,8.703-11.016c0.814-7.392-5.479-14.598-10.901-19.34
		c-2.231-1.951-4.586-3.779-6.86-5.55c-7.449-5.793-14.484-11.264-17.06-20.488c-0.919-3.292-1.515-6.793-2.143-10.503
		c-1.88-11.094-3.826-22.565-14.764-29.03c-3.238-1.916-6.99-3.183-10.619-4.406c-5.727-1.932-11.137-3.76-14.648-7.868
		c-3.608-4.217-3.016-8.483-1.887-11.32c2.329-5.847,8.844-10.76,15.156-11.429c0.843-0.089,1.71-0.135,2.572-0.135
		c6.494,0,12.569,2.468,19.001,5.083c6.59,2.679,13.406,5.447,20.869,5.447c0.239,0,0.476-0.002,0.718-0.009
		c9.355-0.224,19.593-4.457,21.378-13.411c0.76-3.838-0.314-7.802-3.027-11.163c-3.473-4.299-9.29-7.136-14.819-7.222
		c-0.132-0.001-0.272-0.003-0.401-0.003c-7.401,0-13.884,3.175-20.156,6.245c-5.181,2.537-10.074,4.936-15.434,5.677
		c-2.146,0.295-4.335,0.444-6.513,0.444c-6.145,0-12.317-1.209-17.849-3.498c-2.546-1.051-4.915-2.462-7.424-3.955
		c-5.023-2.99-10.217-6.082-16.855-6.082c-11.33,0-18.211,9.403-20.452,27.943c-2.121,17.561-4.19,32.22-9.819,47.664
		c-3.042,8.355-6.732,16.558-10.965,24.384c-2.218,4.103-7.413,13.706-12.887,13.706c-2.026,0-4.205-1.314-6.476-3.908
		c-5.251-5.992-8.403-13.846-11.453-21.438c-0.728-1.812-1.481-3.688-2.247-5.497c-4.34-10.246-7.724-20.948-10.061-31.809
		c-1.14-5.293-1.666-10.833-2.177-16.19c-0.535-5.617-1.087-11.429-2.345-17.06c-1.259-5.642-3.795-10.3-7.33-13.466
		C316.414,200.467,312.3,198.897,308.011,198.896 M457.519,341.4c-7.613,0-15.456-5.346-19.508-13.304
		c-4.127-8.099-3.352-17.064,2.124-24.6c3.948-5.434,10.247-8.548,17.28-8.548c4.281,0,8.442,1.186,12.035,3.429
		c0.336,0.211,0.665,0.43,0.983,0.651c4.173,2.912,6.721,6.815,7.564,11.604c1.198,6.796-1.194,15.27-6.39,22.665
		C467.884,338.598,463.014,341.4,457.519,341.4"/>
	<path d="M538.442,202.082c5.183,0.002,10.741,2.174,15.25,4.988c8.454,5.276,17.787,8.466,27.415,8.466
		c4.141,0,8.34-0.592,12.548-1.86c10.164-3.07,18.315-11.239,29.415-11.239c0.12,0,0.234,0.001,0.355,0.003
		c8.419,0.131,17.288,7.398,15.644,15.656c-1.579,7.935-11.106,11.386-19.196,11.578c-0.219,0.009-0.438,0.011-0.659,0.011
		c-13.962,0-26.365-10.508-40.13-10.508c-1.146,0-2.306,0.072-3.474,0.232c-4.422,0.598-8.496,2.53-11.567,5.28
		c-5.903,5.279-8.119,13.572-2.071,21.216c6.231,7.877,17.555,7.873,25.634,12.647c9.06,5.354,11.179,14.884,13.195,24.427
		c2.21,10.463,3.323,19.222,10.87,27.601c8.104,8.989,42.488,27.164,19.028,39.936c-2.771,1.509-6,2.065-9.39,2.065
		c-6.847,0-14.351-2.272-20.076-3.562c-6.17-1.387-12.133-1.945-18.023-1.945c-10.818,0-21.375,1.887-32.418,3.99
		c-2.372,0.452-5.032,0.731-7.739,0.731c-9.228,0-18.938-3.267-19.214-14.122c-0.007-0.108-0.007-0.207-0.007-0.302
		c-0.003-0.092-0.005-0.179-0.005-0.272c0-18.87,26.476-25.241,34.627-39.932c9.345-16.845,5.467-44.894-9.932-57.124
		c-7.362-5.844-17.247-6.96-22-15.988c-3.245-6.162-2.45-14.683,2.98-19.036C532.103,202.937,535.198,202.082,538.442,202.082
		 M580.543,343.681c5.723,0,11.458-2.671,15.954-9.071c6.132-8.727,9.426-18.962,5.871-27.87c-1.388-3.484-3.823-6.766-7.546-9.674
		c-4.409-3.448-9.406-5.087-14.33-5.087c-7.273,0-14.381,3.576-19.179,10.181C547.441,321.244,563.953,343.681,580.543,343.681
		 M538.446,199.805L538.446,199.805c-4.035,0-7.523,1.154-10.367,3.436c-5.954,4.771-7.521,14.381-3.575,21.878
		c3.365,6.393,8.941,9.171,14.334,11.856c2.968,1.479,5.775,2.878,8.268,4.854c6.776,5.385,11.667,14.646,13.412,25.413
		c1.714,10.577,0.238,21.085-4.057,28.821c-3.06,5.512-9.009,9.833-15.305,14.411c-9.641,7.003-19.611,14.242-19.611,26.626
		l0.005,0.208l0.002,0.085c0,0.134,0.003,0.238,0.005,0.352c0.264,10.222,8.299,16.331,21.496,16.331
		c2.691,0,5.515-0.269,8.169-0.771c11.359-2.163,21.604-3.952,31.988-3.952c6.138,0,11.868,0.62,17.522,1.894
		c1.166,0.262,2.407,0.564,3.702,0.884c5.235,1.28,11.165,2.732,16.875,2.732c4.156,0,7.584-0.766,10.48-2.344
		c5.74-3.124,8.841-6.939,9.217-11.34c0.777-9.129-10.467-18.015-19.497-25.154c-3.324-2.624-6.463-5.106-8.143-6.97
		c-6.354-7.052-7.819-14.238-9.673-23.342c-0.216-1.051-0.434-2.117-0.665-3.201c-1.977-9.369-4.22-19.985-14.264-25.921
		c-3.289-1.944-7.012-3.129-10.616-4.273c-5.635-1.793-10.958-3.484-14.392-7.826c-5.631-7.117-2.758-14.018,1.809-18.102
		c2.817-2.521,6.494-4.199,10.351-4.722c1.032-0.14,2.097-0.21,3.167-0.21c6.42,0,12.566,2.458,19.075,5.061
		c6.691,2.678,13.61,5.445,21.055,5.445c0.24,0,0.475-0.002,0.717-0.009c9.354-0.224,19.593-4.457,21.374-13.411
		c0.765-3.838-0.311-7.802-3.028-11.163c-3.47-4.301-9.286-7.136-14.816-7.222c-0.13-0.001-0.26-0.003-0.39-0.003
		c-7.368,0-13.426,3.261-19.287,6.411c-3.634,1.956-7.064,3.801-10.789,4.926c-3.876,1.17-7.873,1.762-11.887,1.762
		c-8.756,0-17.572-2.73-26.211-8.118C551.708,203.145,545.327,199.805,538.446,199.805 M580.543,341.4
		c-7.615,0-15.458-5.348-19.513-13.304c-4.122-8.099-3.349-17.064,2.127-24.6c4.27-5.868,10.587-9.239,17.335-9.239
		c4.605,0,9.073,1.592,12.928,4.603c3.23,2.529,5.53,5.466,6.833,8.724c3.921,9.833-1.838,20.329-5.624,25.714
		C590.907,338.598,586.035,341.4,580.543,341.4"/>
	<path d="M103.895,202.107c1.289,0,2.607,0.108,3.96,0.348c6.466,1.14,12.443,4.095,18.492,6.645c9.045,3.811,18.952,5.6,28.896,5.6
		c11.985,0,24.025-2.601,34.656-7.385c6.481-2.914,13.175-5.204,19.81-5.204c4.851,0.001,9.671,1.225,14.35,4.319
		c10.229,6.769,16.27,19.836,28.066,23.188c2.285,0.65,4.642,0.882,7.037,0.882c6.111,0,12.461-1.518,18.427-1.518
		c3.657,0,7.171,0.57,10.396,2.41c5.873,3.353,9.065,10.812,7.435,17.374c-1.632,6.562-7.945,11.657-14.704,11.87
		c-0.179,0.005-0.355,0.007-0.533,0.007c-4.629,0-8.688-1.841-12.912-1.839c-2.186,0-4.415,0.493-6.792,1.989
		c-5.342,3.366-3.869,8.914-1.322,13.961c6.686,13.241,16.777,24.725,28.959,33.179c4.41,3.062,9.092,5.729,13.986,7.938
		c5.361,2.418,11.014,4.337,15.838,7.703c4.823,3.366,8.825,8.586,8.887,14.47c0.088,8.529-8.662,15.146-17.21,15.146
		c-0.515,0-1.031-0.026-1.542-0.075c-9.005-0.864-16.542-7.534-21.264-15.252c-4.719-7.715-7.215-16.544-10.514-24.967
		c-4.305-10.983-10.045-21.401-17.032-30.91c-5.808-7.897-13.975-15.777-23.536-15.777c-0.64,0-1.289,0.035-1.943,0.11
		c-10.462,1.173-17.576,12.165-18.096,22.681c-0.521,10.515,3.875,20.58,8.196,30.181c3.742,8.31,7.473,18.147,3.076,26.133
		c-2.543,4.622-7.742,7.622-13.001,7.622c-0.397,0-0.795-0.016-1.192-0.051c-5.651-0.498-10.831-4.559-12.657-9.93
		c-2.301-6.766,0.508-14.061,2.79-20.833c4.901-14.557,7.396-29.911,7.458-45.268c0.031-7.681-0.544-15.362-1.73-22.951
		c-2.248-14.356-6.092-28.646-22.152-32.964c-2.41-0.648-4.622-0.952-6.653-0.952c-11.386,0-17.013,9.554-19.045,21.549
		c-3.824,22.574-4.061,46.016,2.803,68.05c3.12,10.021,12.495,21.231,8.83,32.181c-2.319,6.928-8.94,10.436-15.525,10.436
		c-6.518,0-13-3.438-15.24-10.396c-3.648-11.324,6.524-22.357,9.445-32.799c4.688-16.749,2.356-33.72,1.832-50.774
		c-0.339-11.022,2.834-24.464-4.306-34.034c-2.675-3.59-5.949-4.936-9.403-4.936c-4.047,0-8.341,1.85-12.202,4.107
		c-7.062,4.131-12.281,8.6-20.68,8.6c-0.423,0-0.854-0.014-1.293-0.037c-15.952-0.841-29.442-12.661-45.293-13.393
		c-0.407-0.021-0.813-0.029-1.226-0.029c-7.692,0-16.191,3.311-18.769,11.025c-2.398,7.178-0.317,15.916,5.926,20.507
		c7.033,5.173,17.081,4.646,24.104,9.83c6.924,5.114,9.136,14.379,10.232,22.916c1.096,8.538,1.755,17.66,6.906,24.556
		c3.38,4.523,8.337,7.561,13.207,10.413c4.871,2.854,9.888,5.731,13.512,10.06c3.624,4.328,5.611,10.51,3.471,15.732
		c-2.318,5.658-8.801,8.625-14.91,8.882c-0.38,0.015-0.76,0.023-1.14,0.023c-5.71,0-11.303-1.732-16.894-2.996
		c-7.629-1.726-15.451-2.588-23.274-2.588c-5.839,0-11.68,0.481-17.44,1.449c-6.169,1.035-12.28,2.622-18.533,2.823
		c-0.395,0.016-0.792,0.02-1.189,0.02c-5.89,0-11.956-1.438-16.343-5.327c-4.68-4.149-6.776-11.551-3.584-16.931
		c2.467-4.156,7.422-6.153,12.332-6.153c1.181,0,2.361,0.114,3.501,0.344c5.881,1.185,10.96,4.764,15.722,8.413
		c4.762,3.644,9.527,7.52,15.202,9.463c2.508,0.859,5.141,1.268,7.779,1.268c7.958,0,15.964-3.734,20.708-10.168
		c6.316-8.57,6.346-21.248,0.073-29.846c-8.144-11.159-24.186-14.264-32.368-25.397c-5.109-6.947-6.117-15.646-9.529-23.367
		c-3.197-7.233-8.519-12.195-14.969-16.586c-8.448-5.751-25.011-17.032-16.043-29.285c2.616-3.577,7.084-5.088,11.608-5.088
		c1.792,0,3.591,0.236,5.289,0.677c5.99,1.545,11.253,5.05,16.913,7.546c6.525,2.877,13.639,4.263,20.756,4.263
		c2.62,0,5.242-0.187,7.833-0.559C81.306,212.611,91.236,202.107,103.895,202.107 M230.641,262.712
		c12.687,0,36.704-4.952,31.465-17.146c-3.883-9.036-13.651-16.476-23.394-17.596c-1.147-0.134-2.27-0.2-3.361-0.2
		c-6.971,0-12.703,2.781-16.366,9.359c-3.307,5.935-4.628,14.325-1.219,19.892c1.419,2.32,3.66,4.149,6.921,5.107
		C225.991,262.512,228.086,262.712,230.641,262.712 M103.895,199.826L103.895,199.826c-7.395,0-13.829,3.271-20.052,6.435
		c-5.195,2.639-10.101,5.131-15.556,5.912c-2.485,0.355-5.011,0.535-7.51,0.535c-6.937,0-13.797-1.406-19.836-4.068
		c-1.874-0.826-3.766-1.8-5.595-2.741c-3.679-1.891-7.484-3.848-11.669-4.93c-1.919-0.494-3.89-0.746-5.857-0.746
		c-5.748,0-10.651,2.195-13.45,6.021c-2.532,3.46-3.481,7.145-2.826,10.952c1.629,9.451,12.771,17.035,19.428,21.564
		c7.184,4.89,11.551,9.707,14.166,15.623c1.203,2.726,2.089,5.555,3.025,8.551c1.623,5.187,3.299,10.55,6.751,15.245
		c4.361,5.933,10.705,9.668,16.84,13.28c6.028,3.548,11.72,6.899,15.523,12.112c5.656,7.751,5.628,19.42-0.066,27.146
		c-4.202,5.701-11.433,9.241-18.873,9.241c-2.451,0-4.819-0.388-7.04-1.144c-4.877-1.672-9.229-5.022-13.437-8.259l-1.118-0.858
		c-4.914-3.766-10.248-7.545-16.658-8.838c-1.288-0.259-2.616-0.391-3.952-0.391c-6.246,0-11.591,2.72-14.293,7.273
		c-3.949,6.655-1.049,15.293,4.035,19.802c5.502,4.876,12.746,5.9,17.854,5.9c0.423,0,0.842-0.008,1.261-0.021
		c4.652-0.151,9.213-1.037,13.625-1.889c1.712-0.332,3.482-0.679,5.212-0.968c5.605-0.938,11.345-1.417,17.065-1.417
		c7.671,0,15.333,0.854,22.771,2.534c1.16,0.26,2.321,0.543,3.483,0.826c4.488,1.094,9.126,2.224,13.913,2.224
		c0.412,0,0.824-0.008,1.235-0.025c7.853-0.329,14.496-4.37,16.922-10.294c2.254-5.499,0.751-12.588-3.832-18.06
		c-3.776-4.513-8.822-7.469-13.702-10.329l-0.405-0.235c-5.064-2.969-9.504-5.757-12.533-9.811
		c-4.29-5.742-5.239-13.486-6.159-20.973c-0.103-0.842-0.206-1.676-0.312-2.508c-1.071-8.35-3.309-18.677-11.139-24.46
		c-3.86-2.852-8.415-4.092-12.82-5.292c-4.174-1.137-8.117-2.211-11.287-4.543c-5.168-3.799-7.319-11.346-5.115-17.946
		c2.334-6.988,10.403-9.468,16.606-9.468c0.375,0,0.749,0.009,1.12,0.025c7.534,0.349,14.501,3.336,21.878,6.502
		c7.395,3.17,15.042,6.45,23.401,6.891c0.479,0.027,0.952,0.038,1.413,0.038c7.479,0,12.627-3.215,18.08-6.617
		c1.208-0.754,2.458-1.534,3.752-2.292c4.368-2.554,7.981-3.796,11.05-3.796c3.083,0,5.561,1.315,7.577,4.019
		c4.855,6.514,4.443,15.351,4.044,23.897c-0.137,2.943-0.28,5.987-0.19,8.845c0.108,3.525,0.294,7.091,0.477,10.538
		c0.719,13.681,1.398,26.601-2.226,39.551c-0.913,3.26-2.599,6.628-4.386,10.191c-3.812,7.607-7.754,15.476-5.036,23.924
		c2.343,7.273,9.179,11.976,17.413,11.976c8.305,0,15.248-4.706,17.687-11.991c2.841-8.486-1.263-16.956-4.881-24.427
		c-1.559-3.22-3.032-6.258-3.934-9.156c-6.052-19.43-6.97-41.971-2.731-66.99c1.518-8.966,5.664-19.649,16.796-19.649
		c1.867,0,3.906,0.292,6.061,0.872c13.581,3.651,17.91,14.613,20.49,31.116c1.163,7.426,1.737,15.025,1.705,22.587
		c-0.062,15.287-2.532,30.275-7.34,44.553l-0.457,1.351c-2.216,6.511-4.727,13.893-2.33,20.938
		c2.104,6.184,8.113,10.898,14.617,11.468c0.458,0.043,0.927,0.066,1.392,0.066c6.169,0,12.056-3.458,15-8.806
		c4.685-8.51,1.328-18.567-2.996-28.174c-3.985-8.852-8.504-18.886-7.997-29.128c0.458-9.253,6.595-19.465,16.072-20.528
		c0.562-0.062,1.128-0.095,1.689-0.095c8.913,0,16.718,8.076,21.699,14.851c6.875,9.355,12.511,19.578,16.745,30.386
		c0.868,2.211,1.697,4.505,2.499,6.725c2.266,6.262,4.61,12.741,8.194,18.604c5.834,9.536,14.212,15.488,22.99,16.332
		c0.58,0.057,1.172,0.082,1.762,0.082c5.368,0,10.845-2.292,14.65-6.141c3.163-3.196,4.882-7.212,4.84-11.307
		c-0.061-5.949-3.748-12.052-9.861-16.316c-3.778-2.635-7.994-4.41-12.07-6.13c-1.366-0.576-2.778-1.171-4.134-1.782
		c-4.722-2.133-9.305-4.732-13.625-7.732c-11.984-8.319-21.744-19.501-28.224-32.334c-3.596-7.126-1.885-9.499,0.502-11.003
		c1.774-1.118,3.547-1.64,5.577-1.64c1.819,0,3.692,0.407,5.676,0.836c2.273,0.495,4.624,1.006,7.236,1.006
		c0.2,0,0.402-0.003,0.605-0.01c7.735-0.243,14.978-6.088,16.844-13.6c1.868-7.51-1.794-16.067-8.515-19.904
		c-3.241-1.849-6.903-2.711-11.527-2.711c-3.104,0-6.296,0.393-9.383,0.771c-3.002,0.368-6.109,0.749-9.044,0.749
		c-2.432,0-4.529-0.26-6.413-0.795c-6.401-1.821-11.059-6.904-15.991-12.287c-3.474-3.794-7.068-7.717-11.441-10.61
		c-4.709-3.116-9.961-4.695-15.606-4.695c-6.042,0-12.44,1.665-20.747,5.402c-10.442,4.7-22.103,7.182-33.721,7.182
		c-10.052,0-19.476-1.821-28.01-5.42c-1.061-0.446-2.119-0.906-3.181-1.366c-5.021-2.18-10.212-4.437-15.802-5.422
		C106.814,199.956,105.347,199.826,103.895,199.826 M230.641,260.431c-2.312,0-4.249-0.178-5.311-0.491
		c-2.512-0.737-4.402-2.119-5.621-4.109c-3.07-5.015-1.494-12.635,1.266-17.592c3.07-5.512,7.773-8.189,14.376-8.192
		c0.989,0,2.031,0.065,3.101,0.188c8.892,1.023,17.958,7.85,21.561,16.232c0.818,1.905,0.727,3.512-0.287,5.053
		C255.719,257.6,240,260.431,230.641,260.431"/>
	<path d="M705.698,91.624c8.964,0,16.231,7.268,16.231,16.232c0,8.966-7.268,16.232-16.231,16.232
		c-8.967,0-16.232-7.267-16.232-16.232C689.465,98.892,696.731,91.624,705.698,91.624 M705.698,89.344
		c-10.208,0-18.512,8.306-18.512,18.513c0,10.207,8.304,18.512,18.512,18.512c10.207,0,18.51-8.306,18.51-18.512
		C724.208,97.649,715.905,89.344,705.698,89.344"/>
	<path d="M705.767,2.627c5.148,0,10.077,2.507,13.113,6.661c3.646,4.989,2.901,10.661,3.008,16.487
		c0.48,26.388,10.603,51.702,25.195,73.395c5.29,7.867,11.057,17.319,18.235,23.579c0.601,0.523,1.196,1.063,1.783,1.617
		c6.542,6.195,11.66,14.202,5.794,23.003c-3.097,4.641-8.305,7.187-13.599,7.187c-2.78,0-5.584-0.703-8.118-2.173
		c-9.349-5.427-7.623-16.76-8.794-25.98c-3.221-25.417-10.093-50.591-23.864-72.421c-5.335-8.461-9.22-12.374-12.919-12.374
		c-4.205,0-8.168,5.048-13.748,14.214c-6.264,10.292-11.188,21.373-14.865,32.84c-4.617,14.397-6.647,28.831-7.96,43.794
		c-0.935,10.616-4.109,22.152-16.871,22.152c-8.965,0-16.234-7.268-16.234-16.232c0-11.299,13.581-19.296,19.897-27.354
		c14.654-18.698,26.356-40.166,31.303-63.555c1.326-6.272,1.649-12.672,1.771-19.063c0.104-5.404-0.159-10.999,2.029-16.077
		C693.441,6.48,699.418,2.627,705.767,2.627 M705.767,0.347c-7.277,0-14.085,4.452-16.939,11.079
		c-2.082,4.837-2.133,9.924-2.186,14.842c-0.007,0.7-0.013,1.398-0.026,2.093c-0.114,5.986-0.403,12.387-1.725,18.635
		c-4.465,21.121-14.853,42.188-30.868,62.62c-1.791,2.287-4.253,4.619-6.86,7.085c-6.337,5.994-13.517,12.789-13.517,21.676
		c0,10.208,8.304,18.513,18.512,18.513c17.014,0,18.616-18.238,19.14-24.231c1.125-12.794,2.938-27.944,7.862-43.298
		c3.731-11.632,8.657-22.517,14.644-32.354c4.147-6.812,8.445-13.118,11.799-13.118c2.632,0,6.124,3.594,10.989,11.309
		c12.187,19.318,19.883,42.703,23.533,71.493c0.231,1.85,0.349,3.782,0.465,5.829c0.464,7.934,0.99,16.928,9.447,21.836
		c2.794,1.624,5.998,2.482,9.261,2.482c6.278,0,12.07-3.068,15.495-8.204c5.46-8.187,3.396-16.909-6.123-25.923
		c-0.584-0.55-1.207-1.115-1.853-1.678c-5.939-5.18-11.058-12.91-15.575-19.729c-0.767-1.157-1.521-2.297-2.268-3.405
		c-15.796-23.48-24.372-48.433-24.806-72.162c-0.017-0.929-0.012-1.854-0.006-2.772c0.027-5.033,0.055-10.236-3.445-15.02
		C717.244,3.187,711.654,0.347,705.767,0.347"/>
	<path d="M165.607,3.179c8.965,0,16.233,7.268,16.233,16.232c0,11.3-13.577,19.297-19.895,27.354
		c-14.656,18.699-26.357,40.165-31.305,63.556c-1.325,6.272-1.649,12.671-1.77,19.062c-0.103,5.405,0.158,11-2.029,16.077
		c-2.518,5.847-8.493,9.7-14.846,9.7c-5.146,0-10.074-2.506-13.111-6.661c-3.646-4.989-2.904-10.66-3.009-16.486
		c-0.483-26.597-9.155-51.547-26.683-71.281C64.236,55.152,54.376,45.388,48.1,35.122c-5.256-8.602-7.998-17.553-3.233-24.698
		c3.099-4.645,8.309-7.192,13.602-7.192c2.78,0,5.584,0.703,8.116,2.173c9.351,5.426,7.626,16.76,8.795,25.98
		c3.222,25.417,10.095,50.59,23.864,72.421c5.507,8.73,9.318,12.807,12.95,12.807c4.083,0,7.938-5.153,13.713-14.64
		c14.094-23.156,20.479-49.855,22.831-76.643C149.67,14.716,152.845,3.179,165.607,3.179 M165.607,0.899L165.607,0.899
		c-17.013,0-18.614,18.238-19.14,24.232c-2.671,30.415-10.033,55.162-22.509,75.655c-4.172,6.854-8.516,13.547-11.765,13.547
		c-3.239,0-7.841-6.702-11.021-11.744C88.988,83.274,81.291,59.888,77.642,31.098c-0.235-1.849-0.348-3.782-0.467-5.828
		c-0.463-7.936-0.989-16.928-9.445-21.836c-2.797-1.624-5.999-2.481-9.261-2.481c-6.276,0-12.071,3.068-15.499,8.206
		c-4.644,6.963-3.572,16.099,3.186,27.153c5.119,8.376,12.454,16.299,17.809,22.083c1.358,1.467,2.533,2.735,3.523,3.852
		c16.59,18.678,25.619,42.817,26.11,69.808c0.017,0.928,0.011,1.854,0.006,2.771c-0.029,5.033-0.057,10.235,3.44,15.02
		c3.477,4.756,9.066,7.595,14.952,7.595c7.279,0,14.086-4.452,16.94-11.079c2.083-4.837,2.135-9.924,2.187-14.84
		c0.006-0.701,0.013-1.399,0.026-2.094c0.115-5.986,0.402-12.386,1.724-18.635c4.467-21.12,14.853-42.188,30.867-62.619
		c1.792-2.288,4.257-4.619,6.864-7.085c6.336-5.994,13.515-12.79,13.515-21.677C184.119,9.204,175.816,0.899,165.607,0.899"/>
	<path d="M655.672,3.148c7.875,0.001,15.93,6.25,16.864,14.635c0.626,5.623-1.976,10.176-5.461,14.124
		c-1.323,1.5-2.774,2.913-4.226,4.264c-5.781,5.386-11.312,10.764-16.164,17.028c-9.698,12.509-17.177,26.869-22.088,41.906
		c-2.694,8.263-4.52,16.808-5.312,25.464c-0.695,7.592,0.917,16.104-1.36,23.446c-2.28,7.345-8.379,10.875-14.594,10.875
		c-6.174,0-12.464-3.488-15.23-10.186c-2.229-5.396-2.448-11.423-3.041-17.154c-2.875-27.816-7.698-57.27-24.506-80.439
		c-2.148-2.959-4.364-4.191-6.58-4.191c-9.441,0-18.826,22.394-22.267,28.988c-8.625,16.531-15.36,34.222-18.54,52.643
		c-1.95,11.32-1.776,30.645-17.079,30.645c-0.765,0-1.572-0.049-2.418-0.15c-7.271-0.864-13.217-6.722-14.173-13.984
		c-1.097-8.346,4.543-13.723,11.059-17.744c29.326-18.092,43.157-59.451,42.443-92.466c-0.132-6.123-1.202-12.556,1.495-18.318
		c2.646-5.653,8.468-9.356,14.707-9.356c17.515,0,16.739,20.934,18.633,33.125c2.983,19.216,11.73,36.799,17.757,55.126
		c2.741,8.332,7.521,25.317,18.656,25.317c0.711,0,1.449-0.068,2.216-0.215c9.896-1.887,12.229-16.253,15.448-23.833
		c6.689-15.748,11.844-32.109,15.044-48.927c2.012-10.572,0.775-27.65,8.587-36.166C648.392,4.497,652.013,3.148,655.672,3.148
		 M655.672,0.868L655.672,0.868c-4.611,0-8.694,1.796-11.812,5.196c-6.141,6.697-7.116,17.698-7.977,27.402
		c-0.322,3.612-0.623,7.025-1.168,9.88c-3.056,16.074-8.07,32.379-14.902,48.461c-0.716,1.69-1.375,3.649-2.071,5.725
		c-2.445,7.275-5.217,15.524-11.704,16.76c-0.609,0.116-1.214,0.175-1.789,0.175c-8.806,0-13.289-13.864-15.969-22.146
		c-0.18-0.564-0.354-1.099-0.52-1.604c-1.947-5.914-4.201-11.826-6.381-17.541c-4.571-11.993-9.299-24.393-11.292-37.224
		c-0.276-1.775-0.497-3.765-0.729-5.868c-1.362-12.317-3.227-29.186-20.156-29.186c-7.152,0-13.737,4.189-16.772,10.669
		c-2.402,5.135-2.127,10.522-1.857,15.732c0.064,1.245,0.124,2.421,0.149,3.601c0.667,30.875-11.993,72.357-41.359,90.476
		c-5.856,3.615-13.489,9.618-12.123,19.983c1.084,8.259,7.883,14.968,16.162,15.951c0.922,0.109,1.827,0.165,2.688,0.165
		c15.012,0,17.056-15.659,18.548-27.093c0.255-1.952,0.493-3.793,0.78-5.444c2.883-16.729,9.047-34.215,18.313-51.974
		c0.485-0.931,1.077-2.146,1.758-3.554c3.521-7.245,11.763-24.209,18.486-24.209c1.576,0,3.17,1.093,4.736,3.25
		c16.278,22.442,21.192,51.392,24.083,79.336c0.093,0.92,0.179,1.849,0.266,2.781c0.458,5,0.937,10.168,2.934,15.008
		c2.909,7.044,9.717,11.595,17.339,11.595c7.956,0,14.382-4.783,16.77-12.481c1.543-4.968,1.435-10.287,1.326-15.432
		c-0.06-2.977-0.119-5.788,0.129-8.481c0.759-8.298,2.512-16.697,5.211-24.965c4.87-14.914,12.379-29.166,21.72-41.217
		c4.966-6.407,10.822-12.009,15.918-16.757c1.249-1.162,2.874-2.717,4.381-4.423c2.966-3.363,6.821-8.667,6.016-15.884
		C673.78,8.344,665.198,0.868,655.672,0.868"/>
	<path d="M505.742,2.28c2.595,0,5.33,0.979,8.146,3.307c5.373,4.44,5.725,12.871,2.907,19.245
		c-2.82,6.375-8.072,11.281-12.86,16.344c-22.791,24.104-37.665,55.102-38.322,88.558c-0.084,4.245,0.045,8.535-0.83,12.689
		c-0.871,4.156-2.895,8.259-6.402,10.648c-2.139,1.456-4.664,2.118-7.232,2.118c-3.513,0-7.11-1.238-9.926-3.383
		c-4.871-3.711-7.664-9.609-8.996-15.588c-1.328-5.979-1.37-12.155-1.772-18.267c-0.019-0.315-0.042-0.629-0.063-0.94
		c-0.762-10.498-14.219-72.439-31.229-72.439c-2.683,0-5.455,1.542-8.278,5.07c-5.356,6.694-8.593,14.734-12.524,22.267
		c-8.358,16.022-14.177,32.747-17.991,50.414c-1.923,8.918-1.029,21.915-7.743,28.7c-2.811,2.839-6.546,3.833-10.6,3.833
		c-7.194,0-15.39-3.128-21.194-4.622c-8.158-2.099-16.533-3.658-24.94-3.658c-3.112,0-6.229,0.213-9.341,0.694
		c-7.053,1.085-19.655,8.218-29.52,8.218c-1.915,0-3.729-0.27-5.375-0.902c-2.771-1.067-5.077-3.164-6.633-6.751
		c-2.499-5.761,1.748-12.326,4.995-16.823c7.994-11.075,21.924-19.226,28.175-31.341c9.929-19.244,6.591-50.348-14.574-61.264
		c-8.985-4.636-20.213-7.095-19.221-19.653c0.64-8.081,6.998-15.553,15.391-15.553c0.196,0,0.395,0.003,0.593,0.012
		c10.878,0.454,18.801,8.993,28.517,12.721c4.263,1.635,8.858,2.442,13.462,2.442c6.692,0,13.404-1.707,19.134-5.06
		c6.299-3.685,12.369-10.065,19.966-10.063c1.019,0,2.065,0.115,3.142,0.366c5.769,1.345,10.602,5.917,12,11.707
		c2.197,9.102-3.681,19.814-13.599,19.814c-0.274,0-0.554-0.007-0.835-0.025c-8.278-0.492-14.826-6.204-22.131-9.431
		c-5.005-2.211-10.36-3.779-15.735-4.775c-3.078-0.568-6.689-1.031-10.323-1.031c-7.589,0-15.271,2.019-18.37,9.302
		c-4.027,9.473,5.434,19.5,12.674,24.166c6.951,4.481,16.072,3.925,22.572,8.903c4.877,3.734,7.006,10.629,5.408,16.5
		c-2.186,8.014-8.853,10.028-15.85,12.524c-7.499,2.675-14.501,6.674-19.262,13.218c-5.917,8.134-8.699,21.347-2.85,30.266
		c3.735,5.696,8.941,7.747,14.631,7.747c9.924,0,21.317-6.245,28.928-10.291c15.461-8.221,29.571-19.326,39.283-34.061
		c13.016-19.751,19.016-43.956,18.511-67.299c-0.133-6.122-1.203-12.557,1.494-18.317c2.646-5.653,8.467-9.355,14.708-9.355
		c15.411,0,15.975,16.402,17.982,27.716c3.056,17.223,7.836,34.138,14.249,50.41c2.866,7.278,5.136,14.659,7.993,21.915
		c2.372,6.021,7.923,13.845,14.227,13.845c2.223,0,4.543-0.974,6.847-3.345c9.06-9.313,13.603-22.385,17.274-34.549
		c2.438-8.079,3.848-18.408,5.455-26.659c1.852-9.482,3.385-19.71,6.284-28.989C488.742,15.269,496.297,2.28,505.742,2.28
		 M505.742,0c-10.723,0-18.887,13.66-21.756,22.843c-2.284,7.301-3.723,15.128-5.116,22.695c-0.406,2.204-0.808,4.39-1.227,6.537
		c-0.461,2.358-0.894,4.835-1.355,7.456c-1.149,6.548-2.34,13.321-4.045,18.981c-3.48,11.521-7.928,24.57-16.728,33.62
		c-1.712,1.76-3.465,2.652-5.212,2.652c-4.694,0-9.738-6.387-12.105-12.399c-1.409-3.579-2.703-7.272-3.954-10.844
		c-1.271-3.63-2.586-7.383-4.04-11.071c-6.347-16.109-11.098-32.922-14.124-49.972c-0.224-1.262-0.427-2.582-0.647-3.978
		c-1.674-10.811-3.97-25.62-19.581-25.62c-7.153,0-13.738,4.187-16.773,10.669c-2.404,5.134-2.126,10.521-1.858,15.732
		c0.064,1.246,0.125,2.422,0.149,3.602c0.521,24.022-5.92,47.459-18.134,65.992c-8.658,13.137-21.594,24.342-38.449,33.304
		l-0.752,0.4c-7.197,3.833-18.072,9.623-27.105,9.623c-5.598,0-9.76-2.197-12.724-6.717c-5.342-8.145-2.552-20.337,2.787-27.673
		c3.917-5.384,9.864-9.443,18.184-12.413l0.957-0.34c6.848-2.427,13.929-4.936,16.327-13.732c1.877-6.893-0.68-14.669-6.221-18.911
		c-3.783-2.896-8.235-4.064-12.541-5.193c-3.7-0.97-7.191-1.887-10.182-3.814c-5.67-3.656-15.437-12.824-11.809-21.357
		c2.232-5.25,7.707-7.913,16.271-7.913c3.009,0,6.342,0.333,9.907,0.993c5.456,1.01,10.578,2.563,15.229,4.617
		c2.229,0.986,4.376,2.208,6.648,3.502c4.969,2.829,10.107,5.755,16.271,6.122c0.326,0.019,0.651,0.029,0.969,0.029
		c4.796,0,9.137-2.16,12.226-6.083c3.58-4.548,4.957-10.888,3.59-16.547c-1.586-6.566-6.962-11.824-13.699-13.393
		c-1.21-0.282-2.44-0.426-3.658-0.426c-6.223,0-11.229,3.558-16.071,7c-1.743,1.238-3.39,2.408-5.046,3.378
		c-5.309,3.105-11.527,4.748-17.983,4.748c-4.427,0-8.682-0.771-12.646-2.293c-3.439-1.319-6.637-3.272-10.025-5.342
		c-5.808-3.549-11.813-7.219-19.213-7.528c-0.229-0.009-0.46-0.013-0.688-0.013c-10.181,0-16.977,8.976-17.664,17.653
		c-0.95,12.024,7.98,16.091,15.857,19.68c1.534,0.697,3.118,1.42,4.59,2.179c9.122,4.705,15.426,13.909,17.755,25.917
		c2.137,11.019,0.581,23.085-4.162,32.276c-3.369,6.53-9.341,12.081-15.118,17.447c-4.569,4.249-9.295,8.64-12.881,13.605
		c-4.171,5.78-8.056,12.565-5.236,19.064c1.703,3.926,4.362,6.609,7.905,7.972c1.819,0.7,3.903,1.055,6.195,1.055
		c6.395,0,13.578-2.696,19.917-5.073c3.81-1.429,7.406-2.781,9.951-3.173c2.871-0.442,5.896-0.666,8.993-0.666
		c7.118,0,14.863,1.14,24.373,3.587c1.389,0.357,2.944,0.818,4.593,1.307c5.349,1.586,11.415,3.385,17.168,3.385
		c5.146,0,9.259-1.517,12.221-4.51c5.37-5.428,6.34-14.09,7.197-21.733c0.327-2.92,0.634-5.677,1.156-8.087
		c3.903-18.083,9.72-34.386,17.783-49.84c1.007-1.933,1.979-3.917,2.921-5.839c2.713-5.532,5.519-11.256,9.362-16.059
		c2.238-2.798,4.424-4.216,6.497-4.216c5.927,0,13.05,11.199,19.544,30.724c5.493,16.515,9.044,34.56,9.408,39.601
		c0.023,0.311,0.045,0.616,0.066,0.921c0.087,1.336,0.155,2.674,0.227,4.012c0.254,4.795,0.516,9.755,1.594,14.604
		c1.152,5.171,3.793,12.302,9.841,16.907c3.213,2.447,7.333,3.849,11.307,3.849c3.155,0,6.096-0.869,8.514-2.512
		c3.626-2.467,6.234-6.752,7.354-12.065c0.767-3.649,0.808-7.338,0.846-10.907c0.006-0.736,0.016-1.472,0.029-2.207
		c0.61-31.058,14.001-61.968,37.7-87.035c0.657-0.697,1.323-1.39,1.992-2.083c4.277-4.447,8.706-9.043,11.298-14.905
		c3.056-6.915,2.821-16.667-3.54-21.928C512.268,1.289,509.039,0,505.742,0"/>
	<path d="M211.359,3.278c7.037,0,15.278,5.498,15.797,12.895c0.373,5.35-1.818,10.999-4.144,16.371
		c-1.294,2.984-2.629,5.883-3.588,8.596c-3.1,8.767-4.708,18.428-5.402,27.687c-0.819,10.934-0.757,23.331,2.213,33.904
		c3.33,11.846,7.379,23.266,9.773,35.394c1.844,9.346-5.039,17.028-14.65,17.028c-5.537,0-11.184-3.006-13.721-8.014
		c-2.05-4.049-2.259-8.833-1.452-13.3c2.089-11.561,8.153-22.031,9.59-33.857c1.559-12.83,1.365-25.902-0.423-38.698
		c-1.771-12.691-6.792-24.57-8.638-37.161C195.161,13.525,199.103,3.278,211.359,3.278 M211.359,0.998L211.359,0.998
		c-5.395,0-9.842,1.849-12.864,5.348c-3.689,4.27-5.122,10.701-4.036,18.109c0.931,6.343,2.659,12.549,4.33,18.55
		c1.686,6.048,3.428,12.305,4.307,18.595c1.791,12.821,1.93,25.643,0.416,38.106c-0.743,6.129-2.762,11.822-4.899,17.85
		c-1.808,5.098-3.675,10.369-4.669,15.877c-0.696,3.85-0.973,9.534,1.662,14.734c2.805,5.542,9.137,9.266,15.754,9.266
		c5.457,0,10.429-2.238,13.635-6.142c3.087-3.755,4.242-8.588,3.251-13.607c-1.668-8.452-4.159-16.665-6.57-24.607
		c-1.086-3.583-2.211-7.288-3.245-10.964c-2.418-8.605-3.135-19.745-2.134-33.116c0.769-10.247,2.544-19.364,5.279-27.098
		c0.726-2.057,1.683-4.237,2.697-6.546c0.276-0.629,0.555-1.263,0.831-1.902c2.417-5.578,4.741-11.518,4.327-17.436
		C228.81,7.166,219.408,0.998,211.359,0.998"/>
</g>
</svg>
