<?xml version="1.0" encoding="utf-8"?>
<!-- Generator: Adobe Illustrator 13.0.0, SVG Export Plug-In . SVG Version: 6.00 Build 14948)  -->
<!DOCTYPE svg PUBLIC "-//W3C//DTD SVG 1.1 Basic//EN" "http://www.w3.org/Graphics/SVG/1.1/DTD/svg11-basic.dtd">
<svg version="1.1" baseProfile="basic" id="Layer_1"
	 xmlns="http://www.w3.org/2000/svg" xmlns:xlink="http://www.w3.org/1999/xlink" x="0px" y="0px" width="700px" height="90px"
	 viewBox="0 0 700 90" xml:space="preserve">
<polygon points="157.747,20.336 158.289,20.336 180.717,1.871 211.013,1.871 170.137,33.337 138.122,33.337 119.493,1.871 
	148.975,1.871 "/>
<polygon points="199.256,33.337 211.736,1.871 238.866,1.871 226.388,33.337 "/>
<polygon points="266.722,13.857 310.401,13.857 307.416,21.129 263.737,21.129 262.019,25.449 308.593,25.449 305.518,33.337 
	231.813,33.337 244.293,1.872 317.454,1.872 314.289,9.893 268.259,9.893 "/>
<polygon points="406.625,1.871 394.145,33.337 364.392,33.337 342.688,16.68 342.145,16.68 335.543,33.337 310.041,33.337 
	322.521,1.871 352.635,1.871 374.067,18.354 374.61,18.354 381.122,1.871 "/>
<polygon points="496.156,1.871 483.677,33.337 453.923,33.337 432.218,16.68 431.676,16.68 425.074,33.337 399.571,33.337 
	412.052,1.871 442.166,1.871 463.599,18.354 464.142,18.354 470.653,1.871 "/>
<path d="M552.343,29.371H519.88l-5.185,3.966h-30.023l43.317-31.466h35.631l18.9,31.466h-28.034L552.343,29.371z M547.911,21.174
	l-4.908-9.078h-0.542l-11.866,9.078H547.911z"/>
<path d="M51.53,61.497c-4.521,0-7.777,0.132-9.857,0.793c-0.995,0.31-1.718,0.793-1.718,1.366c0,0.97,1.628,1.365,7.144,1.631
	l21.072,0.925c13.383,0.573,22.337,3.394,22.337,8.858c0,2.688-2.352,6.785-9.225,9.078c-5.878,1.982-14.017,3.261-37.44,3.261
	c-26.587,0-41.329-2.291-41.329-10.003c0-0.485,0.091-1.014,0.181-1.543h30.748c-0.633,2.777,3.98,3.35,12.39,3.35
	c6.24,0,9.224-0.265,10.761-0.749c1.448-0.44,1.809-1.103,1.809-1.499c0-1.014-1.718-1.586-7.415-1.895l-19.625-1.059
	c-12.299-0.66-22.519-2.82-22.519-8.638c0-3.261,2.804-5.949,7.507-7.8c6.33-2.514,15.826-4.012,36.807-4.012
	c23.514,0,39.43,2.381,39.43,9.695c0,0.309,0,0.617-0.09,0.926H62.292C62.474,62.555,59.398,61.497,51.53,61.497"/>
<polygon points="171.539,64.186 146.308,64.186 137.536,86.221 110.404,86.221 119.177,64.186 93.945,64.186 97.652,54.754 
	175.247,54.754 "/>
<path d="M252.117,86.221h-28.939l-6.963-8.902h-19.082l-3.527,8.902h-27.13l12.48-31.467h54.985c18.448,0,25.321,3.174,25.321,8.639
	c0,3.438-1.628,6.17-5.697,8.152c-2.532,1.232-5.697,2.203-11.305,2.688l-0.09,0.44L252.117,86.221z M226.977,68.416
	c1.085-0.617,1.628-1.322,1.628-2.292c0-1.278-1.628-1.896-5.969-1.896h-20.258l-2.17,5.377h20.257
	C223.812,69.605,225.8,69.121,226.977,68.416"/>
<path d="M350.421,54.754l-7.146,18.201c-2.532,6.346-8.862,10.004-17.997,12.074c-7.505,1.675-16.729,2.336-28.034,2.336
	c-23.423,0-37.982-2.952-37.982-11.547c0-1.146,0.271-2.422,0.813-3.834l6.782-17.23h27.131l-7.053,17.672
	c-0.182,0.529-0.272,0.971-0.272,1.41c0,2.909,4.884,3.834,12.843,3.834c4.25,0,7.597-0.354,10.31-1.014
	c3.255-0.793,5.517-2.026,6.42-4.23l7.054-17.672H350.421z"/>
<path d="M435.61,86.221h-18.088l1.267-3.174c-2.804,1.278-6.149,2.159-9.586,2.82c-5.517,1.102-11.485,1.542-18.268,1.542
	c-28.76,0-42.867-4.45-42.867-13.573c0-4.936,2.623-10.4,11.848-14.41c7.867-3.438,20.348-5.861,40.877-5.861
	c32.375,0,44.132,5.244,42.505,12.473h-31.109c-0.362-0.617-1.177-2.776-13.565-2.776c-7.777,0-12.842,1.189-16.098,2.908
	c-3.437,1.808-4.975,4.144-4.975,6.655c0,3.744,4.793,5.597,15.556,5.597c4.521,0,7.958-0.397,10.672-0.838
	c4.341-0.705,6.69-1.586,6.782-1.896h-14.018l2.894-7.14h43.229L435.61,86.221z"/>
<path d="M532.827,86.221H514.74l1.268-3.174c-2.805,1.278-6.149,2.159-9.586,2.82c-5.518,1.102-11.486,1.542-18.27,1.542
	c-28.759,0-42.866-4.45-42.866-13.573c0-4.936,2.623-10.4,11.849-14.41c7.867-3.438,20.347-5.861,40.876-5.861
	c32.376,0,44.132,5.244,42.504,12.473h-31.108c-0.361-0.617-1.177-2.776-13.564-2.776c-7.778,0-12.842,1.189-16.099,2.908
	c-3.437,1.808-4.975,4.144-4.975,6.655c0,3.744,4.793,5.597,15.556,5.597c4.521,0,7.958-0.397,10.672-0.838
	c4.341-0.705,6.69-1.586,6.782-1.896h-14.018l2.894-7.14h43.229L532.827,86.221z"/>
<polygon points="537.802,86.221 550.28,54.754 577.411,54.754 568.55,76.965 613.495,76.965 609.878,86.221 "/>
<polygon points="648.766,66.741 692.445,66.741 689.461,74.014 645.781,74.014 644.063,78.331 690.637,78.331 687.562,86.221 
	613.857,86.221 626.338,54.754 699.5,54.754 696.334,62.775 650.303,62.775 "/>
</svg>
